<svg width="1106" height="469" viewBox="0 0 1106 469" fill="none" xmlns="http://www.w3.org/2000/svg">
<path d="M1015.38 188H986.144C976.123 188 968 196.123 968 206.144V235.376C968 245.397 976.123 253.52 986.144 253.52H1015.38C1025.4 253.52 1033.52 245.397 1033.52 235.376V206.144C1033.52 196.123 1025.4 188 1015.38 188Z" fill="url(#paint0_linear)"/>
<path d="M1017.8 204H984.2C981.89 204 980.021 205.856 980.021 208.125L980 232.875C980 235.144 981.89 237 984.2 237H1017.8C1020.11 237 1022 235.144 1022 232.875V208.125C1022 205.856 1020.11 204 1017.8 204ZM1017.8 232.875H984.2V212.25L1001 222.562L1017.8 212.25V232.875ZM1001 218.438L984.2 208.125H1017.8L1001 218.438Z" fill="white"/>
<path d="M117.532 419H95.608C88.0925 419 82 425.093 82 432.608V454.532C82 462.047 88.0925 468.14 95.608 468.14H117.532C125.047 468.14 131.14 462.047 131.14 454.532V432.608C131.14 425.093 125.047 419 117.532 419Z" fill="url(#paint1_linear)"/>
<path d="M118.369 435.696C116.965 434.265 115.124 433.55 113.256 433.55C111.415 433.55 109.56 434.265 108.143 435.696L107.242 436.61L106.342 435.696C104.924 434.265 103.07 433.55 101.216 433.55C99.3612 433.55 97.5201 434.265 96.116 435.696C93.2947 438.583 93.2947 443.219 96.116 446.08L105.83 455.944C106.614 456.74 107.897 456.74 108.681 455.943L117.468 447.008L118.369 446.094C121.19 443.219 121.19 438.583 118.369 435.696Z" fill="white"/>
<path d="M59.22 65H22.68C10.1542 65 0 75.1542 0 87.68V124.22C0 136.746 10.1542 146.9 22.68 146.9H59.22C71.7458 146.9 81.9 136.746 81.9 124.22V87.68C81.9 75.1542 71.7458 65 59.22 65Z" fill="url(#paint2_linear)"/>
<path d="M40.5 91.3938C43.0375 91.3938 45.0938 93.5675 45.0938 96.25C45.0938 98.9325 43.0375 101.106 40.5 101.106C37.9625 101.106 35.9062 98.9325 35.9062 96.25C35.9062 93.5675 37.9625 91.3938 40.5 91.3938ZM40.5 112.206C46.9969 112.206 53.8438 115.582 53.8438 117.062V119.606H27.1563V117.062C27.1563 115.582 34.0031 112.206 40.5 112.206ZM40.5 87C35.6656 87 31.75 91.1394 31.75 96.25C31.75 101.361 35.6656 105.5 40.5 105.5C45.3344 105.5 49.25 101.361 49.25 96.25C49.25 91.1394 45.3344 87 40.5 87ZM40.5 107.812C34.6594 107.812 23 110.911 23 117.062V124H58V117.062C58 110.911 46.3406 107.812 40.5 107.812Z" fill="white"/>
<path d="M1089.45 411H1063.88C1055.11 411 1048 418.108 1048 426.876V452.454C1048 461.222 1055.11 468.33 1063.88 468.33H1089.45C1098.22 468.33 1105.33 461.222 1105.33 452.454V426.876C1105.33 418.108 1098.22 411 1089.45 411Z" fill="url(#paint3_linear)"/>
<path fill-rule="evenodd" clip-rule="evenodd" d="M1081.18 432.838L1070.66 439.046L1069.06 436.344L1079.58 430.136L1081.18 432.838Z" fill="white"/>
<path fill-rule="evenodd" clip-rule="evenodd" d="M1070.66 440.334L1081.18 446.543L1079.58 449.245L1069.06 443.037L1070.66 440.334Z" fill="white"/>
<path d="M1083.75 434.983C1086.78 434.983 1089.24 432.524 1089.24 429.492C1089.24 426.459 1086.78 424 1083.75 424C1080.72 424 1078.26 426.459 1078.26 429.492C1078.26 432.524 1080.72 434.983 1083.75 434.983Z" fill="white"/>
<path d="M1083.75 455.38C1086.78 455.38 1089.24 452.921 1089.24 449.889C1089.24 446.856 1086.78 444.397 1083.75 444.397C1080.72 444.397 1078.26 446.856 1078.26 449.889C1078.26 452.921 1080.72 455.38 1083.75 455.38Z" fill="white"/>
<path d="M1066.49 445.182C1069.52 445.182 1071.98 442.723 1071.98 439.69C1071.98 436.657 1069.52 434.198 1066.49 434.198C1063.46 434.198 1061 436.657 1061 439.69C1061 442.723 1063.46 445.182 1066.49 445.182Z" fill="white"/>
<path d="M1037.22 0H1000.68C988.154 0 978 10.1542 978 22.68V59.22C978 71.7458 988.154 81.9 1000.68 81.9H1037.22C1049.75 81.9 1059.9 71.7458 1059.9 59.22V22.68C1059.9 10.1542 1049.75 0 1037.22 0Z" fill="url(#paint4_linear)"/>
<path fill-rule="evenodd" clip-rule="evenodd" d="M1035.11 30.5V36L1046 30.5V52.5L1035.11 47V52.5C1035.11 55.5377 1032.67 58 1029.67 58H1002.44C999.438 58 997 55.5377 997 52.5V30.5C997 27.4623 999.438 25 1002.44 25H1029.67C1032.67 25 1035.11 27.4623 1035.11 30.5ZM1016.06 34.625V40.125H1010.61V42.875H1016.06V48.375H1018.78V42.875H1024.22V40.125H1018.78V34.625H1016.06Z" fill="white"/>
<defs>
<linearGradient id="paint0_linear" x1="970.5" y1="190" x2="1033" y2="255.5" gradientUnits="userSpaceOnUse">
<stop stop-color="#17171A"/>
<stop offset="1" stop-color="#3A3A3A"/>
</linearGradient>
<linearGradient id="paint1_linear" x1="85" y1="422" x2="128" y2="466" gradientUnits="userSpaceOnUse">
<stop stop-color="#FF8400"/>
<stop offset="1" stop-color="#FF9C33"/>
</linearGradient>
<linearGradient id="paint2_linear" x1="5" y1="67" x2="74" y2="144" gradientUnits="userSpaceOnUse">
<stop stop-color="#17171A"/>
<stop offset="1" stop-color="#494949"/>
</linearGradient>
<linearGradient id="paint3_linear" x1="1050" y1="412" x2="1102" y2="468" gradientUnits="userSpaceOnUse">
<stop stop-color="#1B1B1B"/>
<stop offset="1" stop-color="#373737"/>
</linearGradient>
<linearGradient id="paint4_linear" x1="981.5" y1="8.94706e-07" x2="1057" y2="86" gradientUnits="userSpaceOnUse">
<stop stop-color="#FF6B00"/>
<stop offset="1" stop-color="#FF9C54"/>
</linearGradient>
</defs>
</svg>
