<svg width="20" height="20" viewBox="0 0 20 20" fill="none" xmlns="http://www.w3.org/2000/svg">
<g clip-path="url(#clip0)">
<path fill-rule="evenodd" clip-rule="evenodd" d="M10.354 1.56153C12.5869 -0.545846 16.1247 -0.517 18.3211 1.62964C20.5325 3.7903 20.5632 7.29675 18.3906 9.49597C18.3854 9.50114 18.3803 9.50627 18.3751 9.51135L15.7063 12.1201C14.5353 13.2647 12.9205 13.8502 11.2816 13.7357C9.64222 13.6211 8.12691 12.8159 7.13226 11.5157C6.7128 10.9674 6.81726 10.1829 7.36557 9.76342C7.91388 9.34396 8.69841 9.44842 9.11787 9.99673C9.66947 10.7178 10.5204 11.1764 11.456 11.2418C12.3921 11.3072 13.3048 10.9715 13.9588 10.3323C13.9588 10.3323 13.9588 10.3324 13.9588 10.3323L16.6191 7.73185C17.8106 6.5182 17.7914 4.60731 16.574 3.41781C15.3399 2.21157 13.3347 2.19216 12.076 3.37391L10.5531 4.8539C10.058 5.33503 9.26664 5.32372 8.78551 4.82863C8.30438 4.33355 8.3157 3.54217 8.81078 3.06105L10.3408 1.57417L10.354 1.56153Z" fill="white"/>
<path fill-rule="evenodd" clip-rule="evenodd" d="M4.29379 7.87985C5.46484 6.73526 7.07961 6.14976 8.71842 6.26432C10.3579 6.37892 11.8732 7.18408 12.8678 8.48428C13.2873 9.0326 13.1828 9.81713 12.6345 10.2366C12.0862 10.656 11.3017 10.5516 10.8822 10.0033C10.3306 9.28223 9.47966 8.82363 8.54409 8.75824C7.60794 8.6928 6.69523 9.02853 6.04129 9.66765C6.04127 9.66767 6.04125 9.66769 6.04123 9.66771L3.38097 12.2682C2.18945 13.4818 2.20863 15.3927 3.42607 16.5822L3.42624 16.5824C4.65996 17.7882 6.66412 17.8078 7.92287 16.6272L9.43566 15.1486C9.92936 14.6661 10.7208 14.6751 11.2033 15.1688C11.6859 15.6625 11.6768 16.4539 11.1831 16.9365L9.66186 18.4233C9.65665 18.4284 9.6514 18.4335 9.6461 18.4385C7.41314 20.5459 3.87517 20.517 1.67878 18.3702C-0.532473 16.2095 -0.563056 12.7032 1.60952 10.504C1.61463 10.4989 1.61978 10.4937 1.62498 10.4887L4.29373 7.8799L4.29379 7.87985Z" fill="white"/>
</g>
<defs>
<clipPath id="clip0">
<rect width="20" height="20" fill="white"/>
</clipPath>
</defs>
</svg>
