<svg width="45" height="53" viewBox="0 0 45 53" fill="none" xmlns="http://www.w3.org/2000/svg">
<g clip-path="url(#clip0)" filter="url(#filter0_d)">
<path d="M22.5 3.875V45.125" stroke="url(#paint0_linear)" stroke-width="4" stroke-linecap="round" stroke-linejoin="round"/>
<path d="M31.875 11.375H17.8125C16.072 11.375 14.4028 12.0664 13.1721 13.2971C11.9414 14.5278 11.25 16.197 11.25 17.9375C11.25 19.678 11.9414 21.3472 13.1721 22.5779C14.4028 23.8086 16.072 24.5 17.8125 24.5H27.1875C28.928 24.5 30.5972 25.1914 31.8279 26.4221C33.0586 27.6528 33.75 29.322 33.75 31.0625C33.75 32.803 33.0586 34.4722 31.8279 35.7029C30.5972 36.9336 28.928 37.625 27.1875 37.625H11.25" stroke="url(#paint1_linear)" stroke-width="4" stroke-linecap="round" stroke-linejoin="round"/>
</g>
<defs>
<filter id="filter0_d" x="-4" y="0" width="53" height="53" filterUnits="userSpaceOnUse" color-interpolation-filters="sRGB">
<feFlood flood-opacity="0" result="BackgroundImageFix"/>
<feColorMatrix in="SourceAlpha" type="matrix" values="0 0 0 0 0 0 0 0 0 0 0 0 0 0 0 0 0 0 127 0"/>
<feOffset dy="2"/>
<feGaussianBlur stdDeviation="2"/>
<feColorMatrix type="matrix" values="0 0 0 0 0 0 0 0 0 0 0 0 0 0 0 0 0 0 0.25 0"/>
<feBlend mode="normal" in2="BackgroundImageFix" result="effect1_dropShadow"/>
<feBlend mode="normal" in="SourceGraphic" in2="effect1_dropShadow" result="shape"/>
</filter>
<linearGradient id="paint0_linear" x1="23" y1="3.875" x2="23" y2="45.125" gradientUnits="userSpaceOnUse">
<stop stop-color="white"/>
<stop offset="1" stop-color="#CCBED5"/>
</linearGradient>
<linearGradient id="paint1_linear" x1="22.5" y1="11.375" x2="22.5" y2="37.625" gradientUnits="userSpaceOnUse">
<stop stop-color="white"/>
<stop offset="1" stop-color="#CCBED5"/>
</linearGradient>
<clipPath id="clip0">
<rect width="45" height="45" fill="white" transform="translate(0 2)"/>
</clipPath>
</defs>
</svg>
